<?xml version="1.0" encoding="UTF-8"?>
<svg id="Layer_2" data-name="Layer 2" xmlns="http://www.w3.org/2000/svg" viewBox="0 0 2675.67 607.94">
  <defs>
    <style>
      .cls-1 {
        fill: #b958db;
      }

      .cls-1, .cls-2 {
        stroke-width: 0px;
      }

      .cls-2 {
        fill: white;
      }
    </style>
  </defs>
  <g id="Layer_1-2" data-name="Layer 1">
    <g>
      <g>
        <path class="cls-2" d="m526.81,315.15c0-100.01,76.98-175.67,178.96-175.67s179.62,75.67,179.62,176.33c0,4.18-.14,8.51-.41,12.78-.53,8.37-7.57,14.85-15.96,14.85h-263.26c11.18,48.69,50.66,80.93,103.3,80.93,36.21,0,67.85-14.89,85.82-37.72,2.58-3.28,6.62-5.05,10.79-5.05h51.68c10.83,0,17.75,11.8,12.25,21.14-31.41,53.35-91.19,88.08-161.85,88.08-103.95,0-180.93-75.66-180.93-175.67Zm79.61-32.24h200.01c-11.18-46.05-50.66-76.98-100.67-76.98s-87.51,30.27-99.35,76.98Z"/>
        <path class="cls-2" d="m929.48,315.15c0-100.01,76.98-175.67,179.62-175.67,81.97,0,147.78,48.5,167.13,119.53,2.02,7.41-3.74,14.69-11.41,14.69h-55.45c-4.7,0-8.96-2.8-10.76-7.13-13.96-33.58-48.28-56.02-89.49-56.03-57.56,0-103.98,47.07-103.97,104.63,0,59.21,44.75,104.6,103.96,104.6,41.23,0,75.56-22.45,89.52-56.05,1.8-4.33,6.06-7.11,10.75-7.11h55.45c7.68,0,13.43,7.29,11.41,14.69-19.35,71.03-85.16,119.53-167.13,119.53-102.64,0-179.62-75.66-179.62-175.67Z"/>
        <path class="cls-2" d="m1358.19,9.21h50.54c6.39,0,11.58,5.18,11.58,11.58v450.57c0,6.39-5.18,11.58-11.58,11.58h-50.54c-6.39,0-11.58-5.18-11.58-11.58V20.79c0-6.39,5.18-11.58,11.58-11.58Z"/>
        <path class="cls-2" d="m1500.57,46.71c0-26.98,20.4-46.71,46.71-46.71s47.37,19.74,47.37,46.71-20.4,46.71-47.37,46.71-46.71-20.4-46.71-46.71Z"/>
        <rect class="cls-2" x="1510.44" y="147.38" width="73.69" height="335.55" rx="17.72" ry="17.72"/>
        <path class="cls-2" d="m1672.95,316.92c0-96.42,77.1-175.02,173.49-177.19,7.08-.16,13.38-.25,18.63-.25,94.09,0,165.14,75.67,165.14,175.67s-71.06,175.67-165.14,175.67c-49.35,0-90.14-21.05-118.43-55.93v160.52c0,6.92-5.61,12.52-12.52,12.52h-48.64c-6.92,0-12.52-5.61-12.52-12.52v-278.49Zm280.94-1.77c0-60.22-45.59-106.14-106.32-104.57-56.89,1.47-100.93,47.66-100.93,104.58,0,60.07,46.04,105.92,106.52,104.58,56.83-1.25,100.73-47.75,100.73-104.59Z"/>
        <path class="cls-2" d="m2115.76,379.63v-151.38c0-7.6-6.16-13.76-13.76-13.76h-29.06c-7.6,0-13.76-6.16-13.76-13.76v-39.59c0-7.6,6.16-13.76,13.76-13.76h33.01c7.6,0,13.76-6.16,13.76-13.76v-63.27c0-7.6,6.16-13.76,13.76-13.76h42.22c7.6,0,13.76,6.16,13.76,13.76v63.27c0,7.6,6.16,13.76,13.76,13.76h55.38c7.6,0,13.76,6.16,13.76,13.76v39.59c0,7.6-6.16,13.76-13.76,13.76h-55.38c-7.6,0-13.76,6.16-13.76,13.76v139.54c0,29.61,18.42,47.37,49.35,47.37h19.8c7.6,0,13.76,6.16,13.76,13.76v40.25c0,7.6-6.16,13.76-13.76,13.76h-30.32c-73.03,0-112.51-36.85-112.51-103.3Z"/>
        <path class="cls-2" d="m2316.43,315.15c0-100.01,76.98-175.67,179.62-175.67s179.62,75.67,179.62,175.67-77.64,175.67-179.62,175.67-179.62-75.66-179.62-175.67Zm282.92,0c0-59.21-44.08-104.61-103.3-104.61s-103.96,45.4-103.96,104.61,44.74,104.61,103.96,104.61,103.3-45.4,103.3-104.61Z"/>
      </g>
      <g>
        <rect class="cls-1" x="232.87" y="264.61" width="145.82" height="101.09" rx="16.05" ry="16.05"/>
        <path class="cls-1" d="m169.16,466.79h193.18c9.03,0,16.35,7.32,16.35,16.35v68.4c0,9.03-7.32,16.35-16.35,16.35h-86.23c-27.89,0-54.84-10.07-75.89-28.35l-74.31-64.52-9.48-8.22-78.27-67.95C13.92,377.79,0,347.26,0,315.16h0c0-32.11,13.92-62.63,38.17-83.68l78.27-67.95,9.48-8.22,74.31-64.52c21.06-18.28,48.01-28.35,75.89-28.35h86.23c9.03,0,16.35,7.32,16.35,16.35v68.4c0,9.03-7.32,16.35-16.35,16.35h-193.18c-23.89,0-43.25,19.36-43.25,43.25v216.77c0,23.89,19.36,43.25,43.25,43.25Z"/>
      </g>
    </g>
  </g>
</svg>